<?xml version="1.0" encoding="UTF-8"?>
<svg xmlns="http://www.w3.org/2000/svg" width="1200mm" height="1970mm" viewBox="0 0 1200 1970">
  <title>SVGnest test — 18 interlocking L-shapes</title>
  <desc>Expected result: one 1200 x 600 mm sheet at zero spacing when rotations are enabled. Each 260 x 190 mm L has a 70 mm arm.</desc>
  <rect id="TEST_STOCK_BIN" x="0" y="0" width="1200" height="600" fill="#dcefdc" fill-opacity="0.72" stroke="#16815f" stroke-width="1.2"/>
  <g fill="#b8cfaa" stroke="#214f3d" stroke-width="0.5">
    <path id="L-01" d="M0 0H260V70H70V190H0Z" transform="translate(20 650)"/><path id="L-02" d="M0 0H260V70H70V190H0Z" transform="translate(300 650)"/><path id="L-03" d="M0 0H260V70H70V190H0Z" transform="translate(580 650)"/>
    <path id="L-04" d="M0 0H260V70H70V190H0Z" transform="translate(20 860)"/><path id="L-05" d="M0 0H260V70H70V190H0Z" transform="translate(300 860)"/><path id="L-06" d="M0 0H260V70H70V190H0Z" transform="translate(580 860)"/>
    <path id="L-07" d="M0 0H260V70H70V190H0Z" transform="translate(20 1070)"/><path id="L-08" d="M0 0H260V70H70V190H0Z" transform="translate(300 1070)"/><path id="L-09" d="M0 0H260V70H70V190H0Z" transform="translate(580 1070)"/>
    <path id="L-10" d="M0 0H260V70H70V190H0Z" transform="translate(20 1280)"/><path id="L-11" d="M0 0H260V70H70V190H0Z" transform="translate(300 1280)"/><path id="L-12" d="M0 0H260V70H70V190H0Z" transform="translate(580 1280)"/>
    <path id="L-13" d="M0 0H260V70H70V190H0Z" transform="translate(20 1490)"/><path id="L-14" d="M0 0H260V70H70V190H0Z" transform="translate(300 1490)"/><path id="L-15" d="M0 0H260V70H70V190H0Z" transform="translate(580 1490)"/>
    <path id="L-16" d="M0 0H260V70H70V190H0Z" transform="translate(20 1700)"/><path id="L-17" d="M0 0H260V70H70V190H0Z" transform="translate(300 1700)"/><path id="L-18" d="M0 0H260V70H70V190H0Z" transform="translate(580 1700)"/>
  </g>
</svg>
